<svg width="122" height="40" viewBox="0 0 122 40" fill="none" xmlns="http://www.w3.org/2000/svg">
<path d="M34.92 5.48C34.92 4.57333 35.24 3.84 35.88 3.28C36.52 2.69333 37.36 2.4 38.4 2.4C39.44 2.4 40.28 2.69333 40.92 3.28C41.56 3.84 41.88 4.57333 41.88 5.48C41.88 6.36 41.56 7.09333 40.92 7.68C40.28 8.24 39.44 8.52 38.4 8.52C37.36 8.52 36.52 8.24 35.88 7.68C35.24 7.09333 34.92 6.36 34.92 5.48ZM41.2 11.84V34H35.56V11.84H41.2ZM51.9422 23.52V34H46.3022V5.76H56.5822C59.9155 5.76 62.4222 6.56 64.1022 8.16C65.8089 9.76 66.6622 11.9333 66.6622 14.68C66.6622 17.3733 65.7822 19.52 64.0222 21.12C62.2889 22.72 59.8089 23.52 56.5822 23.52H51.9422ZM55.9822 19C59.2889 19 60.9422 17.56 60.9422 14.68C60.9422 13.2667 60.5555 12.1867 59.7822 11.44C59.0089 10.6933 57.7422 10.32 55.9822 10.32H51.9422V19H55.9822ZM79.0056 11.56C80.8723 11.56 82.4723 12 83.8056 12.88C85.139 13.76 86.0856 14.9467 86.6456 16.44V11.84H92.2456V34H86.6456V29.36C86.0856 30.8533 85.139 32.0533 83.8056 32.96C82.4723 33.84 80.8723 34.28 79.0056 34.28C77.139 34.28 75.459 33.8267 73.9656 32.92C72.4723 32.0133 71.299 30.7067 70.4456 29C69.619 27.2667 69.2056 25.24 69.2056 22.92C69.2056 20.6 69.619 18.5867 70.4456 16.88C71.299 15.1467 72.4723 13.8267 73.9656 12.92C75.459 12.0133 77.139 11.56 79.0056 11.56ZM80.7656 16.48C79.0056 16.48 77.5923 17.0533 76.5256 18.2C75.459 19.3467 74.9256 20.92 74.9256 22.92C74.9256 24.92 75.459 26.4933 76.5256 27.64C77.5923 28.76 79.0056 29.32 80.7656 29.32C82.4723 29.32 83.8723 28.7467 84.9656 27.6C86.0856 26.4267 86.6456 24.8667 86.6456 22.92C86.6456 20.9467 86.0856 19.3867 84.9656 18.24C83.8723 17.0667 82.4723 16.48 80.7656 16.48ZM106.037 11.56C107.904 11.56 109.49 12 110.797 12.88C112.13 13.76 113.09 14.9467 113.677 16.44V4.4H119.277V34H113.677V29.36C113.09 30.8533 112.13 32.0533 110.797 32.96C109.49 33.84 107.904 34.28 106.037 34.28C104.17 34.28 102.49 33.8267 100.997 32.92C99.5035 32.0133 98.3302 30.7067 97.4769 29C96.6502 27.2667 96.2369 25.24 96.2369 22.92C96.2369 20.6 96.6502 18.5867 97.4769 16.88C98.3302 15.1467 99.5035 13.8267 100.997 12.92C102.49 12.0133 104.17 11.56 106.037 11.56ZM107.797 16.48C106.037 16.48 104.624 17.0533 103.557 18.2C102.49 19.3467 101.957 20.92 101.957 22.92C101.957 24.92 102.49 26.4933 103.557 27.64C104.624 28.76 106.037 29.32 107.797 29.32C109.504 29.32 110.904 28.7467 111.997 27.6C113.117 26.4267 113.677 24.8667 113.677 22.92C113.677 20.9467 113.117 19.3867 111.997 18.24C110.904 17.0667 109.504 16.48 107.797 16.48Z" fill="#101010"/>
</svg>
